# xmcd
#
# Track frame offsets:
#   150
#   19971
#   33957
#   64935
#   78331
#   93669
#   110367
#   124925
#   139106
#   152798
#   168516
#   182322
#   203832
#   223475
#   238140
#   257805
#   281081
#   299542
#   311732
#
# Disc length: 4307 seconds
#
# Revision: 0
# Processed by: cddbd v1.5.1PL2 Copyright (c) Steve Scherf et al.
# Submitted via: GXTranscoder 2.0.1939
#
DISCID=2510d113
DTITLE=ZZ-TOP - ZZ-TOP 6 Pack  CD 3
DYEAR=1900
DGENRE=Blues
TTITLE0=It's only Love
TTITLE1=Arrested for driving while blind
TTITLE2=El Diabolo
TTITLE3=Snappy Kakkie
TTITLE4=Enjoy and get it on
TTITLE5=Ten Dollar Man
TTITLE6=Pan Am Highway Blues
TTITLE7=Avalon Hideaway
TTITLE8=She's a Heartbreaker
TTITLE9=Asleep in the Desert
TTITLE10=Tube Snkae Boogie
TTITLE11=I wanna drive home
TTITLE12=Ten foot pole
TTITLE13=Leila
TTITLE14=Don't tease me
TTITLE15=It's so hard
TTITLE16=Pearl Necklace
TTITLE17=Groovy little hippie Pad
TTITLE18=Heaven, Hell or Houston
EXTD=
EXTT0=
EXTT1=
EXTT2=
EXTT3=
EXTT4=
EXTT5=
EXTT6=
EXTT7=
EXTT8=
EXTT9=
EXTT10=
EXTT11=
EXTT12=
EXTT13=
EXTT14=
EXTT15=
EXTT16=
EXTT17=
EXTT18=
PLAYORDER=
